<?xml version="1.0" encoding="UTF-8" standalone="no"?>
<svg
   xmlns:dc="http://purl.org/dc/elements/1.1/"
   xmlns:cc="http://creativecommons.org/ns#"
   xmlns:rdf="http://www.w3.org/1999/02/22-rdf-syntax-ns#"
   xmlns:svg="http://www.w3.org/2000/svg"
   xmlns="http://www.w3.org/2000/svg"
   viewBox="0 0 442.64401 177.22932"
   height="177.22932"
   width="442.64401"
   xml:space="preserve"
   id="svg2"
   version="1.1"><metadata
     id="metadata8"><rdf:RDF><cc:Work
         rdf:about=""><dc:format>image/svg+xml</dc:format><dc:type
           rdf:resource="http://purl.org/dc/dcmitype/StillImage" /></cc:Work></rdf:RDF></metadata><defs
     id="defs6"><clipPath
       id="clipPath18"
       clipPathUnits="userSpaceOnUse"><path
         id="path16"
         d="M 0,132.922 H 331.983 V 0 H 0 Z" /></clipPath></defs><g
     transform="matrix(1.3333333,0,0,-1.3333333,0,177.22933)"
     id="g10"><g
       id="g12"><g
         clip-path="url(#clipPath18)"
         id="g14"><text
           id="text22"
           style="font-variant:normal;font-weight:normal;font-stretch:normal;font-size:52.98180008px;font-family:Arial;-inkscape-font-specification:ArialMT;writing-mode:lr-tb;fill:#ffffff;fill-opacity:1;fill-rule:nonzero;stroke:none"
           transform="matrix(0.94580026,0,0,-1,159.3374,85.9131)"><tspan
             id="tspan20"
             y="0"
             x="0 38.252861 73.591721 108.93058 144.26944">CYBER</tspan></text>
<text
           id="text26"
           style="font-variant:normal;font-weight:900;font-stretch:normal;font-size:52.98149872px;font-family:'Arial Black';-inkscape-font-specification:Arial-Black;writing-mode:lr-tb;fill:#ffffff;fill-opacity:1;fill-rule:nonzero;stroke:none"
           transform="matrix(0.9888999,0,0,-1,159.2305,16.3545)"><tspan
             id="tspan24"
             y="0"
             x="0 41.219608 85.353195">CUP</tspan></text>
<g
           transform="translate(185.5679,26.3916)"
           id="g28"><path
             id="path30"
             style="fill:none;stroke:#ffffff;stroke-width:0.21600001;stroke-linecap:butt;stroke-linejoin:miter;stroke-miterlimit:5;stroke-dasharray:none;stroke-opacity:1"
             d="m 0,0 c -1.135,-1.259 -2.811,-1.888 -5.027,-1.888 -2.285,0 -4.059,0.78 -5.322,2.338 -1.261,1.559 -1.892,4.441 -1.892,8.644 0,3.392 0.528,5.882 1.586,7.467 1.398,2.135 3.411,3.204 6.037,3.204 1.16,0 2.209,-0.242 3.147,-0.724 0.938,-0.483 1.731,-1.174 2.379,-2.07 0.393,-0.534 0.768,-1.38 1.126,-2.535 l 10.233,2.302 c -1.314,4.001 -3.322,6.968 -6.025,8.9 -2.703,1.93 -6.417,2.897 -11.141,2.897 -6.038,0 -10.706,-1.685 -14.006,-5.055 -3.301,-3.369 -4.951,-8.191 -4.951,-14.464 0,-4.705 0.938,-8.566 2.814,-11.582 1.876,-3.017 4.106,-5.123 6.69,-6.321 2.584,-1.198 5.914,-1.797 9.99,-1.797 3.36,0 6.128,0.492 8.301,1.475 2.175,0.982 3.996,2.44 5.462,4.372 1.467,1.931 2.541,4.337 3.224,7.218 L 2.469,5.484 C 1.957,3.088 1.134,1.259 0,0 Z" /></g><g
           transform="translate(228.2271,31.1465)"
           id="g32"><path
             id="path34"
             style="fill:none;stroke:#ffffff;stroke-width:0.21600001;stroke-linecap:butt;stroke-linejoin:miter;stroke-miterlimit:5;stroke-dasharray:none;stroke-opacity:1"
             d="m 0,0 c 0,-2.103 -0.567,-3.727 -1.701,-4.872 -1.135,-1.147 -2.699,-1.719 -4.695,-1.719 -2.012,0 -3.585,0.581 -4.719,1.744 -1.135,1.163 -1.701,2.779 -1.701,4.847 V 23.133 H -24.38 V 0.538 c 0,-1.861 0.358,-3.999 1.074,-6.411 0.444,-1.5 1.267,-2.956 2.469,-4.369 1.202,-1.413 2.528,-2.504 3.979,-3.271 1.449,-0.767 3.253,-1.279 5.41,-1.538 2.157,-0.259 4.148,-0.387 5.973,-0.387 3.156,0 5.859,0.421 8.11,1.266 1.62,0.604 3.168,1.651 4.643,3.141 1.476,1.491 2.559,3.231 3.249,5.222 0.691,1.991 1.036,4.106 1.036,6.347 V 23.133 L 0,23.133 Z" /></g><g
           transform="translate(247.4136,16.3545)"
           id="g36"><path
             id="path38"
             style="fill:none;stroke:#ffffff;stroke-width:0.21600001;stroke-linecap:butt;stroke-linejoin:miter;stroke-miterlimit:5;stroke-dasharray:none;stroke-opacity:1"
             d="m 0,0 h 11.641 v 14.073 h 6.343 c 4.673,0 8.149,1.077 10.426,3.234 2.277,2.156 3.415,5.148 3.415,8.977 0,3.725 -1.045,6.597 -3.134,8.614 -2.089,2.018 -5.232,3.027 -9.427,3.027 L 0,37.925 Z m 11.641,30.216 h 3.299 c 2.166,0 3.642,-0.414 4.426,-1.241 0.784,-0.829 1.177,-1.837 1.177,-3.028 0,-1.224 -0.452,-2.229 -1.356,-3.013 -0.904,-0.786 -2.473,-1.177 -4.708,-1.177 h -2.838 z" /></g><g
           transform="translate(150.4423,132.9219)"
           id="g40"><path
             id="path42"
             style="fill:none;stroke:#ffffff;stroke-width:2.83500004;stroke-linecap:butt;stroke-linejoin:miter;stroke-miterlimit:22.9260006;stroke-dasharray:none;stroke-opacity:1"
             d="M 0,0 V -120.652" /></g><g
           transform="translate(137.4223,85.667)"
           id="g44"><path
             id="path46"
             style="fill:#ffffff;fill-opacity:1;fill-rule:evenodd;stroke:none"
             d="m 0,0 c 0,0 -1.127,17.675 -10.717,29.989 -9.589,12.314 -33.185,16.295 -33.185,16.295 0,0 14.071,-5.004 20.575,-14.215 6.504,-9.212 6.678,-18.141 6.678,-18.141 h -15.786 c 0,0 -6.205,32.356 -50.813,32.356 -44.608,0 -54.033,-32.042 -54.033,-56.546 0,-24.503 10.028,-59.373 52.148,-59.373 42.12,0 52.698,24.818 52.698,24.818 h 15.786 c 0,0 0,-3.316 -9.118,-12.551 -9.117,-9.236 -18.135,-11.611 -18.135,-11.611 0,0 20.027,0.916 31.964,12.539 C 0,-44.817 0,-30.352 0,-30.352 h -43.902 c 0,0 -4.319,-24.361 -36.833,-24.832 -32.514,-0.47 -42.095,16.335 -42.095,42.723 0,26.388 7.976,45.098 41.998,44.814 C -46.809,32.069 -43.98,0 -43.98,0 Z" /></g><g
           transform="translate(137.4223,85.667)"
           id="g48"><path
             id="path50"
             style="fill:none;stroke:#1d1d1b;stroke-width:0.28299999;stroke-linecap:butt;stroke-linejoin:miter;stroke-miterlimit:22.9260006;stroke-dasharray:none;stroke-opacity:1"
             d="m 0,0 c 0,0 -1.127,17.675 -10.717,29.989 -9.589,12.314 -33.185,16.295 -33.185,16.295 0,0 14.071,-5.004 20.575,-14.215 6.504,-9.212 6.678,-18.141 6.678,-18.141 h -15.786 c 0,0 -6.205,32.356 -50.813,32.356 -44.608,0 -54.033,-32.042 -54.033,-56.546 0,-24.503 10.028,-59.373 52.148,-59.373 42.12,0 52.698,24.818 52.698,24.818 h 15.786 c 0,0 0,-3.316 -9.118,-12.551 -9.117,-9.236 -18.135,-11.611 -18.135,-11.611 0,0 20.027,0.916 31.964,12.539 C 0,-44.817 0,-30.352 0,-30.352 h -43.902 c 0,0 -4.319,-24.361 -36.833,-24.832 -32.514,-0.47 -42.095,16.335 -42.095,42.723 0,26.388 7.976,45.098 41.998,44.814 C -46.809,32.069 -43.98,0 -43.98,0 Z" /></g><g
           transform="translate(64.0961,114.4199)"
           id="g52"><path
             id="path54"
             style="fill:#ffffff;fill-opacity:1;fill-rule:evenodd;stroke:none"
             d="m 0,0 c 0,0 -19.451,-6.652 -19.451,-37.889 0,-31.236 16.269,-42.516 16.269,-42.516 0,0 -27.473,-4.76 -27.634,41.362 C -30.977,7.079 0,0 0,0" /></g><g
           transform="translate(64.0961,114.4199)"
           id="g56"><path
             id="path58"
             style="fill:none;stroke:#1d1d1b;stroke-width:0.28299999;stroke-linecap:butt;stroke-linejoin:miter;stroke-miterlimit:22.9260006;stroke-dasharray:none;stroke-opacity:1"
             d="m 0,0 c 0,0 -19.451,-6.652 -19.451,-37.889 0,-31.236 16.269,-42.516 16.269,-42.516 0,0 -27.473,-4.76 -27.634,41.362 C -30.977,7.079 0,0 0,0 Z" /></g></g></g></g></svg>